<svg xmlns="http://www.w3.org/2000/svg" xmlns:xlink="http://www.w3.org/1999/xlink" width="500" zoomAndPan="magnify" viewBox="0 0 375 374.999991" height="500" preserveAspectRatio="xMidYMid meet" version="1.0"><defs><g/><clipPath id="3e8fb8e79f"><path d="M 88.9375 141 L 130 141 L 130 197 L 88.9375 197 Z M 88.9375 141 " clip-rule="nonzero"/></clipPath><clipPath id="537e4eb01d"><path d="M 133 134.570312 L 135.4375 134.570312 L 135.4375 213.320312 L 133 213.320312 Z M 133 134.570312 " clip-rule="nonzero"/></clipPath></defs><g clip-path="url(#3e8fb8e79f)"><path fill="#000000" d="M 88.964844 155.902344 L 88.964844 191.789062 C 88.964844 194.601562 91.265625 196.90625 94.078125 196.90625 L 111.894531 196.90625 C 109.066406 193.214844 107.386719 188.597656 107.386719 183.589844 C 107.386719 171.496094 117.175781 161.691406 129.253906 161.691406 L 129.253906 141.570312 L 121.398438 141.570312 C 119.679688 141.570312 118.09375 142.488281 117.238281 143.972656 L 113.308594 150.789062 L 94.078125 150.789062 C 91.265625 150.789062 88.964844 153.089844 88.964844 155.902344 Z M 94.957031 155.964844 C 94.957031 155.558594 95.292969 155.226562 95.699219 155.226562 L 107.316406 155.226562 C 107.726562 155.226562 108.058594 155.558594 108.058594 155.964844 L 108.058594 158.9375 C 108.058594 159.34375 107.722656 159.679688 107.316406 159.679688 L 95.703125 159.679688 C 95.292969 159.679688 94.960938 159.34375 94.960938 158.9375 L 94.960938 155.964844 Z M 94.957031 155.964844 " fill-opacity="1" fill-rule="nonzero"/></g><path fill="#000000" d="M 127.097656 169.234375 C 126.425781 169.332031 125.769531 169.480469 125.128906 169.667969 C 126.910156 170.847656 128.082031 172.871094 128.082031 175.171875 C 128.082031 178.8125 125.132812 181.765625 121.496094 181.765625 C 119.050781 181.765625 116.917969 180.429688 115.78125 178.449219 C 115.449219 179.355469 115.207031 180.304688 115.0625 181.285156 C 113.769531 190.175781 120.621094 197.804688 129.253906 197.804688 L 129.253906 201.972656 C 124.308594 201.972656 119.660156 200.046875 116.164062 196.546875 C 112.667969 193.046875 110.746094 188.394531 110.746094 183.441406 C 110.746094 178.492188 112.667969 173.839844 116.164062 170.339844 C 119.660156 166.839844 124.308594 164.914062 129.253906 164.914062 L 129.253906 169.082031 C 128.546875 169.078125 127.828125 169.128906 127.097656 169.234375 Z M 127.097656 169.234375 " fill-opacity="1" fill-rule="nonzero"/><g clip-path="url(#537e4eb01d)"><path fill="#000000" d="M 133.359375 134.570312 L 135.410156 134.570312 L 135.410156 213.324219 L 133.359375 213.324219 Z M 133.359375 134.570312 " fill-opacity="1" fill-rule="nonzero"/></g><g fill="#000000" fill-opacity="1"><g transform="translate(139.432159, 182.693696)"><g><path d="M 21.921875 -13.15625 C 23.359375 -12.65625 24.484375 -11.867188 25.296875 -10.796875 C 26.117188 -9.722656 26.53125 -8.429688 26.53125 -6.921875 C 26.53125 -4.710938 25.640625 -3.003906 23.859375 -1.796875 C 22.085938 -0.597656 19.519531 0 16.15625 0 L 2.515625 0 L 2.515625 -25.234375 L 15.421875 -25.234375 C 18.648438 -25.234375 21.101562 -24.640625 22.78125 -23.453125 C 24.46875 -22.265625 25.3125 -20.660156 25.3125 -18.640625 C 25.3125 -17.429688 25.015625 -16.351562 24.421875 -15.40625 C 23.828125 -14.457031 22.992188 -13.707031 21.921875 -13.15625 Z M 9.59375 -20.078125 L 9.59375 -15.21875 L 14.484375 -15.21875 C 16.890625 -15.21875 18.09375 -16.03125 18.09375 -17.65625 C 18.09375 -19.269531 16.890625 -20.078125 14.484375 -20.078125 Z M 15.578125 -5.15625 C 18.078125 -5.15625 19.328125 -6.007812 19.328125 -7.71875 C 19.328125 -9.414062 18.078125 -10.265625 15.578125 -10.265625 L 9.59375 -10.265625 L 9.59375 -5.15625 Z M 15.578125 -5.15625 "/></g></g></g><g fill="#000000" fill-opacity="1"><g transform="translate(163.614899, 182.693696)"><g><path d="M 2.203125 -26.75 L 9.046875 -26.75 L 9.046875 0 L 2.203125 0 Z M 2.203125 -26.75 "/></g></g></g><g fill="#000000" fill-opacity="1"><g transform="translate(171.36346, 182.693696)"><g><path d="M 22.171875 -9.734375 C 22.171875 -9.679688 22.132812 -9.113281 22.0625 -8.03125 L 7.859375 -8.03125 C 8.148438 -7.03125 8.707031 -6.257812 9.53125 -5.71875 C 10.363281 -5.175781 11.40625 -4.90625 12.65625 -4.90625 C 13.59375 -4.90625 14.398438 -5.035156 15.078125 -5.296875 C 15.765625 -5.566406 16.457031 -6 17.15625 -6.59375 L 20.765625 -2.84375 C 18.867188 -0.726562 16.09375 0.328125 12.4375 0.328125 C 10.15625 0.328125 8.148438 -0.101562 6.421875 -0.96875 C 4.691406 -1.832031 3.347656 -3.035156 2.390625 -4.578125 C 1.441406 -6.117188 0.96875 -7.863281 0.96875 -9.8125 C 0.96875 -11.726562 1.429688 -13.445312 2.359375 -14.96875 C 3.285156 -16.5 4.566406 -17.695312 6.203125 -18.5625 C 7.835938 -19.425781 9.675781 -19.859375 11.71875 -19.859375 C 13.664062 -19.859375 15.429688 -19.457031 17.015625 -18.65625 C 18.597656 -17.851562 19.851562 -16.6875 20.78125 -15.15625 C 21.707031 -13.632812 22.171875 -11.828125 22.171875 -9.734375 Z M 11.75 -15 C 10.695312 -15 9.8125 -14.695312 9.09375 -14.09375 C 8.382812 -13.488281 7.9375 -12.671875 7.75 -11.640625 L 15.75 -11.640625 C 15.5625 -12.671875 15.113281 -13.488281 14.40625 -14.09375 C 13.695312 -14.695312 12.8125 -15 11.75 -15 Z M 11.75 -15 "/></g></g></g><g fill="#000000" fill-opacity="1"><g transform="translate(190.969138, 182.693696)"><g><path d="M 27.640625 -19.859375 C 30.046875 -19.859375 31.960938 -19.132812 33.390625 -17.6875 C 34.828125 -16.25 35.546875 -14.078125 35.546875 -11.171875 L 35.546875 0 L 28.6875 0 L 28.6875 -10.0625 C 28.6875 -11.425781 28.425781 -12.429688 27.90625 -13.078125 C 27.394531 -13.734375 26.671875 -14.0625 25.734375 -14.0625 C 24.703125 -14.0625 23.875 -13.695312 23.25 -12.96875 C 22.625 -12.25 22.3125 -11.160156 22.3125 -9.703125 L 22.3125 0 L 15.46875 0 L 15.46875 -10.0625 C 15.46875 -12.726562 14.484375 -14.0625 12.515625 -14.0625 C 11.453125 -14.0625 10.609375 -13.695312 9.984375 -12.96875 C 9.359375 -12.25 9.046875 -11.160156 9.046875 -9.703125 L 9.046875 0 L 2.203125 0 L 2.203125 -19.53125 L 8.71875 -19.53125 L 8.71875 -17.484375 C 9.445312 -18.273438 10.304688 -18.867188 11.296875 -19.265625 C 12.296875 -19.660156 13.382812 -19.859375 14.5625 -19.859375 C 15.9375 -19.859375 17.160156 -19.601562 18.234375 -19.09375 C 19.316406 -18.59375 20.195312 -17.828125 20.875 -16.796875 C 21.644531 -17.785156 22.617188 -18.539062 23.796875 -19.0625 C 24.972656 -19.59375 26.253906 -19.859375 27.640625 -19.859375 Z M 27.640625 -19.859375 "/></g></g></g><g fill="#000000" fill-opacity="1"><g transform="translate(225.120932, 182.693696)"><g/></g></g><g fill="#000000" fill-opacity="1"><g transform="translate(139.432159, 194.881782)"><g><path d="M 3.515625 -6.546875 C 4.347656 -6.546875 5 -6.34375 5.46875 -5.9375 C 5.945312 -5.539062 6.1875 -4.992188 6.1875 -4.296875 C 6.1875 -3.597656 5.945312 -3.050781 5.46875 -2.65625 C 5 -2.257812 4.347656 -2.0625 3.515625 -2.0625 L 1.75 -2.0625 L 1.75 0 L 1.0625 0 L 1.0625 -6.546875 Z M 3.5 -2.671875 C 4.144531 -2.671875 4.640625 -2.8125 4.984375 -3.09375 C 5.328125 -3.375 5.5 -3.773438 5.5 -4.296875 C 5.5 -4.828125 5.328125 -5.234375 4.984375 -5.515625 C 4.640625 -5.796875 4.144531 -5.9375 3.5 -5.9375 L 1.75 -5.9375 L 1.75 -2.671875 Z M 3.5 -2.671875 "/></g></g></g><g fill="#000000" fill-opacity="1"><g transform="translate(151.716927, 194.881782)"><g><path d="M 5.53125 0 L 4.03125 -2.109375 C 3.863281 -2.085938 3.691406 -2.078125 3.515625 -2.078125 L 1.75 -2.078125 L 1.75 0 L 1.0625 0 L 1.0625 -6.546875 L 3.515625 -6.546875 C 4.347656 -6.546875 5 -6.34375 5.46875 -5.9375 C 5.945312 -5.539062 6.1875 -4.992188 6.1875 -4.296875 C 6.1875 -3.785156 6.054688 -3.351562 5.796875 -3 C 5.535156 -2.644531 5.164062 -2.394531 4.6875 -2.25 L 6.28125 0 Z M 3.5 -2.65625 C 4.144531 -2.65625 4.640625 -2.796875 4.984375 -3.078125 C 5.328125 -3.367188 5.5 -3.773438 5.5 -4.296875 C 5.5 -4.828125 5.328125 -5.234375 4.984375 -5.515625 C 4.640625 -5.796875 4.144531 -5.9375 3.5 -5.9375 L 1.75 -5.9375 L 1.75 -2.65625 Z M 3.5 -2.65625 "/></g></g></g><g fill="#000000" fill-opacity="1"><g transform="translate(164.048394, 194.881782)"><g><path d="M 3.921875 0.0625 C 3.273438 0.0625 2.6875 -0.0820312 2.15625 -0.375 C 1.632812 -0.664062 1.222656 -1.0625 0.921875 -1.5625 C 0.628906 -2.070312 0.484375 -2.640625 0.484375 -3.265625 C 0.484375 -3.898438 0.628906 -4.46875 0.921875 -4.96875 C 1.222656 -5.476562 1.632812 -5.875 2.15625 -6.15625 C 2.6875 -6.445312 3.273438 -6.59375 3.921875 -6.59375 C 4.566406 -6.59375 5.148438 -6.445312 5.671875 -6.15625 C 6.191406 -5.875 6.601562 -5.476562 6.90625 -4.96875 C 7.207031 -4.46875 7.359375 -3.898438 7.359375 -3.265625 C 7.359375 -2.640625 7.207031 -2.070312 6.90625 -1.5625 C 6.601562 -1.050781 6.191406 -0.648438 5.671875 -0.359375 C 5.148438 -0.078125 4.566406 0.0625 3.921875 0.0625 Z M 3.921875 -0.5625 C 4.441406 -0.5625 4.910156 -0.675781 5.328125 -0.90625 C 5.742188 -1.144531 6.066406 -1.46875 6.296875 -1.875 C 6.535156 -2.289062 6.65625 -2.753906 6.65625 -3.265625 C 6.65625 -3.773438 6.535156 -4.238281 6.296875 -4.65625 C 6.066406 -5.070312 5.742188 -5.394531 5.328125 -5.625 C 4.910156 -5.863281 4.441406 -5.984375 3.921875 -5.984375 C 3.410156 -5.984375 2.941406 -5.863281 2.515625 -5.625 C 2.097656 -5.394531 1.769531 -5.070312 1.53125 -4.65625 C 1.289062 -4.238281 1.171875 -3.773438 1.171875 -3.265625 C 1.171875 -2.753906 1.289062 -2.289062 1.53125 -1.875 C 1.769531 -1.46875 2.097656 -1.144531 2.515625 -0.90625 C 2.941406 -0.675781 3.410156 -0.5625 3.921875 -0.5625 Z M 3.921875 -0.5625 "/></g></g></g><g fill="#000000" fill-opacity="1"><g transform="translate(177.463278, 194.881782)"><g><path d="M 1.0625 -6.546875 L 3.734375 -6.546875 C 4.421875 -6.546875 5.03125 -6.40625 5.5625 -6.125 C 6.09375 -5.84375 6.503906 -5.453125 6.796875 -4.953125 C 7.085938 -4.460938 7.234375 -3.898438 7.234375 -3.265625 C 7.234375 -2.628906 7.085938 -2.0625 6.796875 -1.5625 C 6.503906 -1.070312 6.09375 -0.6875 5.5625 -0.40625 C 5.03125 -0.132812 4.421875 0 3.734375 0 L 1.0625 0 Z M 3.6875 -0.59375 C 4.257812 -0.59375 4.757812 -0.707031 5.1875 -0.9375 C 5.625 -1.164062 5.957031 -1.476562 6.1875 -1.875 C 6.425781 -2.28125 6.546875 -2.742188 6.546875 -3.265625 C 6.546875 -3.796875 6.425781 -4.257812 6.1875 -4.65625 C 5.957031 -5.0625 5.625 -5.375 5.1875 -5.59375 C 4.757812 -5.820312 4.257812 -5.9375 3.6875 -5.9375 L 1.75 -5.9375 L 1.75 -0.59375 Z M 3.6875 -0.59375 "/></g></g></g><g fill="#000000" fill-opacity="1"><g transform="translate(190.756745, 194.881782)"><g><path d="M 3.703125 0.0625 C 2.847656 0.0625 2.1875 -0.179688 1.71875 -0.671875 C 1.25 -1.160156 1.015625 -1.867188 1.015625 -2.796875 L 1.015625 -6.546875 L 1.703125 -6.546875 L 1.703125 -2.828125 C 1.703125 -2.066406 1.875 -1.5 2.21875 -1.125 C 2.5625 -0.75 3.054688 -0.5625 3.703125 -0.5625 C 4.359375 -0.5625 4.851562 -0.75 5.1875 -1.125 C 5.53125 -1.5 5.703125 -2.066406 5.703125 -2.828125 L 5.703125 -6.546875 L 6.375 -6.546875 L 6.375 -2.796875 C 6.375 -1.867188 6.140625 -1.160156 5.671875 -0.671875 C 5.203125 -0.179688 4.546875 0.0625 3.703125 0.0625 Z M 3.703125 0.0625 "/></g></g></g><g fill="#000000" fill-opacity="1"><g transform="translate(203.73266, 194.881782)"><g><path d="M 3.90625 0.0625 C 3.257812 0.0625 2.675781 -0.078125 2.15625 -0.359375 C 1.632812 -0.648438 1.222656 -1.050781 0.921875 -1.5625 C 0.628906 -2.070312 0.484375 -2.640625 0.484375 -3.265625 C 0.484375 -3.898438 0.628906 -4.46875 0.921875 -4.96875 C 1.222656 -5.476562 1.632812 -5.875 2.15625 -6.15625 C 2.675781 -6.445312 3.265625 -6.59375 3.921875 -6.59375 C 4.398438 -6.59375 4.84375 -6.507812 5.25 -6.34375 C 5.664062 -6.1875 6.019531 -5.953125 6.3125 -5.640625 L 5.875 -5.203125 C 5.363281 -5.722656 4.71875 -5.984375 3.9375 -5.984375 C 3.414062 -5.984375 2.941406 -5.863281 2.515625 -5.625 C 2.097656 -5.382812 1.769531 -5.054688 1.53125 -4.640625 C 1.289062 -4.234375 1.171875 -3.773438 1.171875 -3.265625 C 1.171875 -2.753906 1.289062 -2.289062 1.53125 -1.875 C 1.769531 -1.46875 2.097656 -1.144531 2.515625 -0.90625 C 2.941406 -0.675781 3.414062 -0.5625 3.9375 -0.5625 C 4.71875 -0.5625 5.363281 -0.820312 5.875 -1.34375 L 6.3125 -0.90625 C 6.019531 -0.59375 5.664062 -0.351562 5.25 -0.1875 C 4.84375 -0.0195312 4.394531 0.0625 3.90625 0.0625 Z M 3.90625 0.0625 "/></g></g></g><g fill="#000000" fill-opacity="1"><g transform="translate(216.026772, 194.881782)"><g><path d="M 2.34375 -5.9375 L 0.03125 -5.9375 L 0.03125 -6.546875 L 5.328125 -6.546875 L 5.328125 -5.9375 L 3.03125 -5.9375 L 3.03125 0 L 2.34375 0 Z M 2.34375 -5.9375 "/></g></g></g><g fill="#000000" fill-opacity="1"><g transform="translate(226.966608, 194.881782)"><g><path d="M 1.0625 -6.546875 L 1.75 -6.546875 L 1.75 0 L 1.0625 0 Z M 1.0625 -6.546875 "/></g></g></g><g fill="#000000" fill-opacity="1"><g transform="translate(235.366024, 194.881782)"><g><path d="M 3.921875 0.0625 C 3.273438 0.0625 2.6875 -0.0820312 2.15625 -0.375 C 1.632812 -0.664062 1.222656 -1.0625 0.921875 -1.5625 C 0.628906 -2.070312 0.484375 -2.640625 0.484375 -3.265625 C 0.484375 -3.898438 0.628906 -4.46875 0.921875 -4.96875 C 1.222656 -5.476562 1.632812 -5.875 2.15625 -6.15625 C 2.6875 -6.445312 3.273438 -6.59375 3.921875 -6.59375 C 4.566406 -6.59375 5.148438 -6.445312 5.671875 -6.15625 C 6.191406 -5.875 6.601562 -5.476562 6.90625 -4.96875 C 7.207031 -4.46875 7.359375 -3.898438 7.359375 -3.265625 C 7.359375 -2.640625 7.207031 -2.070312 6.90625 -1.5625 C 6.601562 -1.050781 6.191406 -0.648438 5.671875 -0.359375 C 5.148438 -0.078125 4.566406 0.0625 3.921875 0.0625 Z M 3.921875 -0.5625 C 4.441406 -0.5625 4.910156 -0.675781 5.328125 -0.90625 C 5.742188 -1.144531 6.066406 -1.46875 6.296875 -1.875 C 6.535156 -2.289062 6.65625 -2.753906 6.65625 -3.265625 C 6.65625 -3.773438 6.535156 -4.238281 6.296875 -4.65625 C 6.066406 -5.070312 5.742188 -5.394531 5.328125 -5.625 C 4.910156 -5.863281 4.441406 -5.984375 3.921875 -5.984375 C 3.410156 -5.984375 2.941406 -5.863281 2.515625 -5.625 C 2.097656 -5.394531 1.769531 -5.070312 1.53125 -4.65625 C 1.289062 -4.238281 1.171875 -3.773438 1.171875 -3.265625 C 1.171875 -2.753906 1.289062 -2.289062 1.53125 -1.875 C 1.769531 -1.46875 2.097656 -1.144531 2.515625 -0.90625 C 2.941406 -0.675781 3.410156 -0.5625 3.921875 -0.5625 Z M 3.921875 -0.5625 "/></g></g></g><g fill="#000000" fill-opacity="1"><g transform="translate(248.780906, 194.881782)"><g><path d="M 6.53125 -6.546875 L 6.53125 0 L 5.96875 0 L 1.75 -5.3125 L 1.75 0 L 1.0625 0 L 1.0625 -6.546875 L 1.640625 -6.546875 L 5.84375 -1.234375 L 5.84375 -6.546875 Z M 6.53125 -6.546875 "/></g></g></g><g fill="#000000" fill-opacity="1"><g transform="translate(261.952952, 194.881782)"><g><path d="M 2.875 0.0625 C 2.382812 0.0625 1.914062 -0.015625 1.46875 -0.171875 C 1.019531 -0.328125 0.675781 -0.535156 0.4375 -0.796875 L 0.703125 -1.328125 C 0.941406 -1.085938 1.257812 -0.894531 1.65625 -0.75 C 2.050781 -0.601562 2.457031 -0.53125 2.875 -0.53125 C 3.457031 -0.53125 3.894531 -0.632812 4.1875 -0.84375 C 4.476562 -1.0625 4.625 -1.34375 4.625 -1.6875 C 4.625 -1.945312 4.546875 -2.15625 4.390625 -2.3125 C 4.234375 -2.46875 4.035156 -2.585938 3.796875 -2.671875 C 3.566406 -2.753906 3.25 -2.847656 2.84375 -2.953125 C 2.351562 -3.078125 1.957031 -3.195312 1.65625 -3.3125 C 1.363281 -3.425781 1.113281 -3.601562 0.90625 -3.84375 C 0.695312 -4.082031 0.59375 -4.398438 0.59375 -4.796875 C 0.59375 -5.128906 0.679688 -5.429688 0.859375 -5.703125 C 1.035156 -5.972656 1.300781 -6.1875 1.65625 -6.34375 C 2.019531 -6.507812 2.472656 -6.59375 3.015625 -6.59375 C 3.378906 -6.59375 3.738281 -6.539062 4.09375 -6.4375 C 4.457031 -6.332031 4.769531 -6.191406 5.03125 -6.015625 L 4.796875 -5.46875 C 4.523438 -5.644531 4.234375 -5.78125 3.921875 -5.875 C 3.609375 -5.96875 3.304688 -6.015625 3.015625 -6.015625 C 2.441406 -6.015625 2.007812 -5.898438 1.71875 -5.671875 C 1.425781 -5.453125 1.28125 -5.171875 1.28125 -4.828125 C 1.28125 -4.554688 1.359375 -4.34375 1.515625 -4.1875 C 1.671875 -4.03125 1.867188 -3.910156 2.109375 -3.828125 C 2.347656 -3.742188 2.671875 -3.648438 3.078125 -3.546875 C 3.554688 -3.429688 3.941406 -3.316406 4.234375 -3.203125 C 4.535156 -3.085938 4.789062 -2.910156 5 -2.671875 C 5.207031 -2.441406 5.3125 -2.128906 5.3125 -1.734375 C 5.3125 -1.398438 5.222656 -1.097656 5.046875 -0.828125 C 4.867188 -0.554688 4.59375 -0.335938 4.21875 -0.171875 C 3.851562 -0.015625 3.40625 0.0625 2.875 0.0625 Z M 2.875 0.0625 "/></g></g></g></svg>